<svg width="139" height="40" viewBox="0 0 139 40" fill="none" xmlns="http://www.w3.org/2000/svg"><path d="M137.693 35.387c0 2.131-1.763 3.858-3.943 3.858H4.718c-2.18 0-3.948-1.727-3.948-3.858V4.617C.77 2.488 2.538.755 4.718.755h129.031c2.181 0 3.943 1.733 3.943 3.864l.001 30.769Z" fill="#fff"/><path d="M133.333.801c2.375 0 4.307 1.884 4.307 4.199v30c0 2.315-1.932 4.199-4.307 4.199H5.128C2.754 39.199.822 37.315.822 35V5C.822 2.685 2.754.801 5.128.801h128.205Zm0-.801H5.128C2.31 0 0 2.251 0 5v30c0 2.749 2.309 5 5.128 5h128.205c2.82 0 5.129-2.251 5.129-5V5c0-2.749-2.309-5-5.129-5Z" fill="#A6A6A6"/><path d="M30.9 19.784c-.03-3.223 2.707-4.791 2.832-4.864-1.55-2.203-3.952-2.504-4.796-2.528-2.017-.207-3.974 1.177-5.002 1.177-1.048 0-2.63-1.157-4.336-1.123-2.195.033-4.248 1.272-5.375 3.196-2.324 3.923-.59 9.688 1.636 12.859 1.114 1.553 2.416 3.287 4.12 3.226 1.666-.067 2.288-1.036 4.3-1.036 1.992 0 2.577 1.036 4.315.997 1.788-.028 2.914-1.56 3.99-3.127 1.286-1.78 1.803-3.533 1.824-3.623-.042-.014-3.474-1.291-3.508-5.154Zm-3.282-9.478c.897-1.093 1.51-2.58 1.34-4.09-1.298.057-2.92.876-3.855 1.945-.826.942-1.565 2.486-1.374 3.938 1.457.106 2.954-.717 3.89-1.793Zm22.69-.296c0 1.176-.362 2.062-1.085 2.657-.67.55-1.622.824-2.855.824a13.57 13.57 0 0 1-1.572-.078v-6.43c.571-.09 1.187-.137 1.851-.137 1.175 0 2.06.25 2.657.747.668.563 1.004 1.368 1.004 2.416Zm-1.134.028c0-.763-.207-1.348-.621-1.756-.414-.407-1.02-.61-1.817-.61-.338 0-.626.021-.865.067v4.89c.132.02.374.028.726.028.822 0 1.457-.223 1.904-.669.448-.446.673-1.096.673-1.95Zm7.143.999c0 .725-.212 1.319-.637 1.785-.445.479-1.035.718-1.771.718-.71 0-1.275-.229-1.697-.689-.42-.459-.63-1.038-.63-1.736 0-.73.216-1.329.65-1.794.436-.465 1.02-.698 1.757-.698.71 0 1.28.23 1.712.688.41.446.616 1.022.616 1.726Zm-1.115.034c0-.435-.096-.808-.288-1.119-.226-.376-.547-.564-.964-.564-.432 0-.76.188-.986.564-.193.311-.288.69-.288 1.138 0 .435.096.808.288 1.119.233.376.557.564.976.564.41 0 .732-.191.964-.574.199-.317.298-.693.298-1.128Zm9.172-2.351-1.513 4.713h-.984l-.627-2.047a15.025 15.025 0 0 1-.389-1.523h-.019a10.925 10.925 0 0 1-.389 1.523l-.665 2.047h-.996L57.369 8.72h1.105l.546 2.241c.133.53.241 1.035.329 1.513h.02c.08-.394.211-.896.398-1.503l.686-2.25h.876l.658 2.202c.158.537.288 1.054.387 1.552h.03c.073-.485.183-1.002.328-1.552l.587-2.202h1.055Zm5.573 4.713h-1.075v-2.7c0-.832-.324-1.248-.974-1.248a.98.98 0 0 0-.777.343 1.199 1.199 0 0 0-.298.808v2.796h-1.075v-3.366c0-.414-.013-.863-.039-1.349h.945l.05.737h.03c.125-.229.311-.418.556-.569.292-.176.618-.265.975-.265.451 0 .826.142 1.125.427.371.35.557.87.557 1.562v2.824Zm2.963 0h-1.073V6.556h1.074v6.877Zm6.329-2.396c0 .725-.213 1.319-.637 1.785-.445.479-1.036.718-1.771.718-.711 0-1.276-.229-1.697-.689-.42-.459-.63-1.038-.63-1.736 0-.73.216-1.329.65-1.794.436-.465 1.02-.698 1.756-.698.71 0 1.28.23 1.712.688.41.446.617 1.022.617 1.726Zm-1.116.034c0-.435-.097-.808-.288-1.119-.225-.376-.547-.564-.963-.564-.433 0-.761.188-.986.564-.193.311-.288.69-.288 1.138 0 .435.096.808.288 1.119.233.376.557.564.975.564.41 0 .732-.191.963-.574.2-.317.299-.693.299-1.128Zm6.317 2.362h-.964l-.08-.543h-.03c-.33.433-.801.65-1.412.65-.457 0-.826-.143-1.104-.427a1.32 1.32 0 0 1-.378-.96c0-.576.246-1.015.741-1.319.495-.304 1.19-.453 2.085-.446V10.3c0-.621-.334-.931-1.004-.931-.477 0-.897.117-1.26.35l-.219-.689c.45-.27 1.004-.407 1.659-.407 1.263 0 1.897.65 1.897 1.95v1.736c0 .471.024.846.07 1.124Zm-1.115-1.62v-.727c-1.186-.02-1.778.297-1.778.95 0 .246.067.43.206.553a.764.764 0 0 0 .525.184c.236 0 .456-.073.657-.218a.892.892 0 0 0 .39-.742Zm7.224 1.62h-.954l-.05-.757h-.03c-.305.576-.824.864-1.553.864a1.838 1.838 0 0 1-1.453-.669c-.384-.446-.576-1.025-.576-1.736 0-.763.208-1.38.627-1.853.405-.44.901-.66 1.492-.66.65 0 1.104.213 1.362.64h.02V6.556h1.076v5.607c0 .46.013.882.038 1.27Zm-1.114-1.988v-.786c0-.136-.01-.246-.03-.33a1.189 1.189 0 0 0-.389-.635 1.073 1.073 0 0 0-.719-.257c-.4 0-.715.155-.945.466-.23.311-.345.708-.345 1.193 0 .466.11.844.33 1.135.233.31.547.465.94.465.352 0 .635-.129.849-.388.207-.239.309-.527.309-.863Zm10.307-.408c0 .725-.213 1.319-.637 1.785-.445.479-1.034.718-1.772.718-.708 0-1.273-.229-1.696-.689-.42-.459-.63-1.038-.63-1.736 0-.73.216-1.329.65-1.794.436-.465 1.02-.698 1.758-.698.708 0 1.28.23 1.71.688.41.446.617 1.022.617 1.726Zm-1.114.034c0-.435-.097-.808-.288-1.119-.227-.376-.547-.564-.965-.564-.431 0-.76.188-.986.564-.193.311-.288.69-.288 1.138 0 .435.096.808.288 1.119.233.376.557.564.975.564.41 0 .734-.191.965-.574.198-.317.299-.693.299-1.128Zm6.893 2.362h-1.074v-2.7c0-.832-.324-1.248-.975-1.248a.978.978 0 0 0-.776.343 1.198 1.198 0 0 0-.298.808v2.796h-1.076v-3.366c0-.414-.012-.863-.038-1.349h.944l.05.737h.03c.126-.229.313-.418.557-.569.292-.176.617-.265.975-.265.45 0 .826.142 1.124.427.372.35.557.87.557 1.562v2.824Zm7.234-3.929h-1.184v2.29c0 .582.21.873.627.873.193 0 .353-.016.479-.05l.027.796c-.212.078-.491.117-.834.117-.425 0-.755-.126-.994-.378-.24-.252-.359-.676-.359-1.271V9.504h-.707v-.785h.707v-.864l1.053-.31v1.173h1.184v.786h.001Zm5.69 3.929h-1.076v-2.68c0-.845-.324-1.268-.973-1.268-.499 0-.839.245-1.026.735a1.28 1.28 0 0 0-.05.377v2.835h-1.074V6.556h1.074v2.841h.02c.339-.517.824-.775 1.453-.775.445 0 .813.142 1.105.427.365.355.547.883.547 1.581v2.803Zm5.87-2.58c0 .188-.015.346-.04.475h-3.224c.014.466.168.821.467 1.067.272.22.624.33 1.055.33.477 0 .912-.074 1.304-.223l.168.728c-.459.194-.998.291-1.623.291-.748 0-1.338-.215-1.765-.645-.429-.43-.641-1.007-.641-1.73 0-.712.198-1.304.597-1.776.416-.504.98-.756 1.69-.756.696 0 1.224.252 1.581.756.288.4.431.895.431 1.483Zm-1.026-.27a1.39 1.39 0 0 0-.208-.806c-.187-.29-.471-.437-.856-.437-.35 0-.637.142-.855.427a1.56 1.56 0 0 0-.319.815h2.238ZM55.02 31.504h-2.33l-1.275-3.909H46.98l-1.215 3.91h-2.268l4.394-13.309h2.714l4.415 13.308Zm-3.99-5.549-1.153-3.475c-.123-.355-.351-1.19-.689-2.507h-.04a95.793 95.793 0 0 1-.649 2.507l-1.133 3.475h3.664Zm15.29.633c0 1.632-.453 2.922-1.357 3.869-.81.843-1.817 1.264-3.018 1.264-1.296 0-2.227-.454-2.794-1.362h-.042v5.055h-2.186V25.067c0-1.026-.028-2.08-.081-3.16h1.923l.122 1.522h.041c.73-1.146 1.836-1.718 3.321-1.718 1.161 0 2.13.447 2.906 1.342.777.896 1.165 2.074 1.165 3.535Zm-2.228.078c0-.934-.215-1.704-.648-2.31-.473-.632-1.108-.948-1.904-.948-.54 0-1.03.176-1.467.523-.44.35-.727.807-.86 1.373-.069.264-.102.48-.102.65v1.6c0 .698.219 1.287.658 1.768.439.48 1.01.72 1.71.72.824 0 1.465-.31 1.924-.927.46-.62.69-1.435.69-2.45Zm13.548-.078c0 1.632-.452 2.922-1.358 3.869-.81.843-1.815 1.264-3.016 1.264-1.297 0-2.228-.454-2.794-1.362h-.041v5.055h-2.187V25.067a65.8 65.8 0 0 0-.08-3.16h1.922l.122 1.522h.041c.728-1.146 1.835-1.718 3.321-1.718 1.16 0 2.13.447 2.907 1.342.774.896 1.163 2.074 1.163 3.535Zm-2.228.078c0-.934-.216-1.704-.649-2.31-.473-.632-1.106-.948-1.903-.948-.54 0-1.03.176-1.468.523-.44.35-.725.807-.86 1.373a2.81 2.81 0 0 0-.101.65v1.6c0 .698.22 1.287.656 1.768.44.48 1.01.72 1.713.72.824 0 1.465-.31 1.923-.927.46-.62.69-1.435.69-2.45Zm14.884 1.106c0 1.132-.403 2.053-1.212 2.764-.89.777-2.127 1.165-3.718 1.165-1.469 0-2.646-.276-3.537-.829l.506-1.777a6.11 6.11 0 0 0 3.161.85c.824 0 1.465-.182 1.925-.544.459-.362.688-.848.688-1.454 0-.54-.19-.995-.568-1.364-.376-.369-1.005-.712-1.883-1.029-2.39-.869-3.583-2.142-3.583-3.816 0-1.094.418-1.991 1.256-2.689.835-.699 1.949-1.048 3.342-1.048 1.242 0 2.274.211 3.097.632l-.546 1.738c-.77-.408-1.64-.612-2.613-.612-.77 0-1.37.185-1.8.553a1.56 1.56 0 0 0-.548 1.205c0 .526.209.961.627 1.303.364.316 1.026.658 1.986 1.027 1.174.461 2.037 1 2.592 1.618.552.616.828 1.387.828 2.307Zm7.23-4.264h-2.41v4.659c0 1.185.424 1.777 1.276 1.777.39 0 .715-.033.971-.1l.06 1.62c-.43.157-.997.236-1.7.236-.864 0-1.538-.257-2.026-.77-.485-.514-.729-1.376-.729-2.587v-4.837h-1.436v-1.6h1.436v-1.757l2.148-.632v2.389h2.41v1.602Zm10.875 3.119c0 1.475-.433 2.686-1.297 3.633-.905.975-2.107 1.46-3.606 1.46-1.444 0-2.594-.466-3.451-1.4-.858-.934-1.286-2.113-1.286-3.534 0-1.487.44-2.705 1.326-3.652.883-.948 2.075-1.422 3.573-1.422 1.444 0 2.606.467 3.483 1.402.839.907 1.258 2.078 1.258 3.513Zm-2.269.069c0-.885-.194-1.644-.587-2.277-.458-.766-1.113-1.148-1.963-1.148-.879 0-1.546.383-2.005 1.148-.393.634-.587 1.405-.587 2.317 0 .885.194 1.644.587 2.276.473.766 1.133 1.148 1.986 1.148.835 0 1.49-.39 1.963-1.168.403-.645.606-1.412.606-2.296Zm9.376-2.913a3.886 3.886 0 0 0-.689-.06c-.769 0-1.364.284-1.782.85-.365.5-.547 1.133-.547 1.896v5.035h-2.186l.021-6.574c0-1.106-.028-2.113-.082-3.021h1.904l.08 1.836h.061c.231-.631.595-1.14 1.093-1.52a2.688 2.688 0 0 1 1.581-.514c.202 0 .384.014.546.039v2.033Zm9.78 2.469c0 .382-.025.704-.08.967h-6.56c.026.948.343 1.673.952 2.173.553.447 1.268.67 2.146.67.971 0 1.857-.15 2.654-.453l.343 1.48c-.932.396-2.031.593-3.3.593-1.526 0-2.724-.438-3.596-1.313-.87-.875-1.305-2.05-1.305-3.524 0-1.447.405-2.652 1.216-3.613.849-1.026 1.997-1.54 3.441-1.54 1.418 0 2.492.514 3.221 1.54.578.815.868 1.823.868 3.02Zm-2.085-.553c.014-.632-.128-1.178-.425-1.64-.378-.592-.96-.888-1.742-.888-.715 0-1.297.289-1.741.869-.364.46-.58 1.014-.647 1.658h4.555Z" fill="#000"/></svg>