<svg width="139" height="40" viewBox="0 0 139 40" fill="none" xmlns="http://www.w3.org/2000/svg"><path d="M133.41 40H5.205C2.386 40 .077 37.749.077 35V5c0-2.749 2.31-5 5.128-5H133.41c2.82 0 5.129 2.251 5.129 5v30c0 2.749-2.309 5-5.129 5Z" fill="#fff"/><path d="M133.41.801c2.375 0 4.307 1.884 4.307 4.199v30c0 2.315-1.932 4.199-4.307 4.199H5.205C2.831 39.199.9 37.315.9 35V5C.899 2.685 2.83.801 5.205.801H133.41Zm0-.801H5.205C2.386 0 .077 2.251.077 5v30c0 2.749 2.31 5 5.128 5H133.41c2.82 0 5.129-2.251 5.129-5V5c0-2.749-2.309-5-5.129-5Z" fill="#A6A6A6"/><path d="M10.01 7.539c-.301.307-.475.786-.475 1.406V31.06c0 .62.174 1.099.475 1.406l.075.068 12.71-12.388v-.292L10.085 7.466l-.075.073Zm18.556 16.738-4.232-4.13v-.293l4.237-4.132.095.054 5.018 2.784c1.431.79 1.431 2.09 0 2.885l-5.018 2.779-.1.053Zm-.67.716-4.332-4.224-12.785 12.467c.476.487 1.252.546 2.134.058l14.983-8.301Zm0-9.986L12.913 6.706c-.882-.483-1.658-.424-2.134.064l12.785 12.46 4.332-4.224Z" fill="#000"/><path d="M48.71 10.243c0 .835-.256 1.504-.761 2.003-.581.591-1.337.889-2.264.889-.886 0-1.643-.303-2.263-.899-.622-.605-.932-1.348-.932-2.236 0-.889.31-1.632.932-2.231.62-.602 1.377-.904 2.263-.904.44 0 .861.088 1.262.253.4.167.726.392.962.67l-.536.527c-.411-.474-.972-.708-1.688-.708-.647 0-1.207.22-1.682.664-.47.445-.707 1.021-.707 1.729 0 .707.236 1.289.707 1.733a2.404 2.404 0 0 0 1.682.664c.685 0 1.262-.225 1.718-.668.3-.294.47-.7.515-1.217h-2.233V9.79h2.98c.035.156.045.307.045.454Zm4.727-2.504H50.64v1.9h2.523v.722H50.64v1.9h2.798v.736h-3.59V7.002h3.59v.737Zm3.336 5.258h-.792V7.74h-1.717v-.737h4.227v.737h-1.718v5.258Zm4.777 0V7.002h.79v5.995h-.79Zm4.297 0h-.785V7.74h-1.724v-.737h4.232v.737h-1.723v5.258Zm9.726-.771c-.606.606-1.358.909-2.254.909-.901 0-1.652-.303-2.259-.909-.605-.605-.906-1.348-.906-2.226 0-.879.301-1.621.906-2.226.607-.607 1.358-.91 2.26-.91.89 0 1.642.303 2.248.915.61.61.912 1.347.912 2.22 0 .88-.302 1.622-.907 2.227Zm-3.927-.503c.457.45 1.012.674 1.673.674.657 0 1.217-.225 1.668-.674.455-.448.686-1.025.686-1.723 0-.699-.23-1.275-.686-1.724-.451-.449-1.011-.674-1.668-.674-.661 0-1.216.225-1.673.674-.455.449-.686 1.025-.686 1.724 0 .698.231 1.275.686 1.723Zm5.944 1.274V7.002h.962l2.99 4.663h.035l-.035-1.153v-3.51h.791v5.995h-.826l-3.13-4.892h-.035l.035 1.157v3.735h-.786Z" fill="#000" stroke="#000" stroke-width=".16" stroke-miterlimit="10"/><path d="M69.96 21.753c-2.41 0-4.378 1.787-4.378 4.253 0 2.447 1.968 4.253 4.377 4.253 2.414 0 4.382-1.806 4.382-4.253 0-2.466-1.968-4.253-4.382-4.253Zm0 6.83c-1.323 0-2.46-1.063-2.46-2.577 0-1.533 1.137-2.578 2.46-2.578 1.321 0 2.463 1.045 2.463 2.578 0 1.514-1.142 2.578-2.464 2.578Zm-9.55-6.83c-2.415 0-4.378 1.787-4.378 4.253 0 2.447 1.963 4.253 4.377 4.253 2.413 0 4.377-1.806 4.377-4.253 0-2.466-1.964-4.253-4.377-4.253Zm0 6.83c-1.324 0-2.465-1.063-2.465-2.577 0-1.533 1.141-2.578 2.464-2.578 1.322 0 2.46 1.045 2.46 2.578 0 1.514-1.138 2.578-2.46 2.578Zm-11.365-5.527v1.808h4.427c-.13 1.01-.476 1.752-1.006 2.27-.647.625-1.653 1.319-3.42 1.319-2.725 0-4.859-2.144-4.859-4.8 0-2.657 2.134-4.8 4.858-4.8 1.473 0 2.545.56 3.336 1.288l1.306-1.273c-1.106-1.03-2.578-1.822-4.642-1.822-3.736 0-6.876 2.964-6.876 6.607 0 3.642 3.14 6.606 6.876 6.606 2.02 0 3.536-.645 4.728-1.855 1.222-1.191 1.603-2.866 1.603-4.219 0-.42-.036-.806-.1-1.129h-6.23Zm46.47 1.402c-.361-.952-1.472-2.705-3.737-2.705-2.243 0-4.111 1.723-4.111 4.253 0 2.383 1.849 4.253 4.327 4.253a4.35 4.35 0 0 0 3.636-1.885l-1.487-.966c-.497.707-1.172 1.176-2.15 1.176-.97 0-1.666-.434-2.112-1.289l5.835-2.354-.202-.483Zm-5.95 1.416a2.36 2.36 0 0 1 2.279-2.48c.761 0 1.407.371 1.623.902l-3.901 1.578ZM84.824 30h1.918V17.5h-1.918V30Zm-3.14-7.3h-.065c-.43-.497-1.252-.947-2.293-.947-2.185 0-4.183 1.87-4.183 4.267 0 2.384 1.998 4.239 4.183 4.239 1.04 0 1.862-.454 2.293-.966h.064v.61c0 1.626-.89 2.5-2.328 2.5-1.172 0-1.899-.825-2.199-1.52l-1.668.68c.481 1.127 1.754 2.515 3.867 2.515 2.249 0 4.146-1.29 4.146-4.43v-7.637h-1.818v.69Zm-2.194 5.884c-1.322 0-2.429-1.079-2.429-2.564 0-1.499 1.107-2.592 2.429-2.592 1.302 0 2.33 1.093 2.33 2.592 0 1.485-1.028 2.564-2.33 2.564ZM104.494 17.5h-4.587V30h1.912v-4.736h2.675c2.124 0 4.207-1.499 4.207-3.883 0-2.382-2.088-3.88-4.207-3.88Zm.05 6.025h-2.725V19.24h2.725a2.196 2.196 0 0 1 2.243 2.142c0 .968-.815 2.144-2.243 2.144Zm11.824-1.796c-1.382 0-2.819.595-3.41 1.914l1.697.693c.366-.693 1.037-.918 1.748-.918.992 0 1.998.58 2.014 1.607v.131c-.346-.195-1.087-.483-1.999-.483-1.828 0-3.691.98-3.691 2.812 0 1.675 1.498 2.754 3.181 2.754 1.287 0 1.997-.566 2.443-1.225h.066v.966h1.847v-4.795c0-2.216-1.697-3.456-3.896-3.456Zm-.231 6.85c-.625 0-1.497-.303-1.497-1.059 0-.967 1.087-1.339 2.028-1.339.842 0 1.237.182 1.749.42-.15 1.158-1.172 1.978-2.28 1.978Zm10.858-6.576-2.199 5.418h-.065l-2.273-5.418h-2.063l3.415 7.572-1.948 4.214h1.998l5.263-11.786h-2.128ZM109.753 30h1.918V17.5h-1.918V30Z" fill="#000"/></svg>